<svg t="1750663159990" class="icon" viewBox="0 0 1024 1024" version="1.1" xmlns="http://www.w3.org/2000/svg" p-id="4784" width="200" height="200"><path d="M512.042667 193.237333a255.914667 255.914667 0 0 1 351.658666 9.728 256 256 0 0 1 10.069334 351.402667l-361.813334 362.325333-361.728-362.325333a256 256 0 0 1 361.813334-361.130667z m291.242666 70.016a170.581333 170.581333 0 0 0-234.24-6.528l-56.96 51.114667-57.002666-51.072a170.666667 170.666667 0 0 0-242.602667 239.146667L512 795.904l299.52-299.946667a170.666667 170.666667 0 0 0-8.234667-232.704z" fill="#8a8a8a" p-id="4785"></path></svg>