<svg t="1710331455098" class="icon" viewBox="0 0 1024 1024" version="1.1" xmlns="http://www.w3.org/2000/svg" p-id="3180" width="200" height="200"><path d="M757.8 593.9c-83 10.8-165.9 16.2-248.7 16.2s-153.6 19-212.1 56.8l5.1 16.2c3.4 29.3 17.1 43.9 41 43.9h363.5c17.1-7.6 25.6-15.5 25.6-23.6 0-8.1 8.5-44.6 25.6-109.5z" fill="#ffd052" p-id="3181"></path><path d="M800.9 420.8h-11.1c-51.1-64.7-138.8-98.6-260.5-101 0-0.4 0.2-0.7 0.2-1.1v-40c0-0.8-0.3-1.5-0.4-2.2h25.3c5.7 0 10.2-4.6 10.2-10.2 0-5.7-4.6-10.2-10.2-10.2h-70.1c-5.7 0-10.2 4.6-10.2 10.2 0 5.7 4.6 10.2 10.2 10.2h25.3c-0.2 0.7-0.4 1.4-0.4 2.2v40c0 0.3 0.2 0.6 0.2 1-125.7 1.1-216.3 35.1-269.2 101.1h-9.5c-14.2 0-25.7 11.5-25.7 25.7v3c0 11.8 7.1 22.3 18.1 26.6l17.4 6.9c2.5 1 4.4 3.2 5 5.8l49.2 215.9c4.9 21.6 23.8 36.6 45.9 36.6h356.1c22.4 0 41.8-15.9 46.2-37.9l23.9-120.1c1.1-1.9 1.6-4.1 1.3-6.3l17.5-88c0.6-2.8 2.5-5 5.1-6.1l17.9-6.9c11-4.2 18.3-15 18.3-26.8v-2.9c-0.3-13.9-11.8-25.5-26-25.5zM515.5 340c113.7 0 196.7 27.2 247.2 80.8H267.3c51.2-53.6 134.5-80.8 248.2-80.8z m207.1 359.5c-2.5 12.4-13.5 21.4-26.1 21.4H340.4c-12.5 0-23.2-8.5-26-20.7l-22.2-97.4c54.4-19.5 106.4-29.4 154.6-29.4 35.7 0 64 7.1 94.1 14.6 31.7 7.9 64.4 16.1 107.1 16.1 42 0 73.5-3 95.4-9.2l-20.8 104.6z m83.6-250.1c0 3.4-2.1 6.4-5.2 7.6l-18 7c-9.2 3.6-15.8 11.5-17.8 21.2L748 571.7c-18.6 7.9-52.1 11.9-100 11.9-40.2 0-71.7-7.9-102.2-15.5-29.9-7.5-60.9-15.2-99.1-15.2-49.8 0-103.4 10.1-159.1 29.8l-22.4-98.5c-2.1-9.2-8.6-16.8-17.4-20.3l-17.4-6.9a8.15 8.15 0 0 1-5.2-7.6v-3c0-2.9 2.4-5.3 5.3-5.3h570.4c2.9 0 5.2 2.4 5.2 5.3v3z" fill="#444444" p-id="3182"></path><path d="M419.8 686.1m-20.5 0a20.5 20.5 0 1 0 41 0 20.5 20.5 0 1 0-41 0Z" fill="#444444" p-id="3183"></path><path d="M645.1 665.6m-20.5 0a20.5 20.5 0 1 0 41 0 20.5 20.5 0 1 0-41 0Z" fill="#444444" p-id="3184"></path><path d="M573.4 675.8m-10.2 0a10.2 10.2 0 1 0 20.4 0 10.2 10.2 0 1 0-20.4 0Z" fill="#444444" p-id="3185"></path><path d="M368.6 645.1m-10.2 0a10.2 10.2 0 1 0 20.4 0 10.2 10.2 0 1 0-20.4 0Z" fill="#444444" p-id="3186"></path><path d="M496.6 660.5m-25.6 0a25.6 25.6 0 1 0 51.2 0 25.6 25.6 0 1 0-51.2 0Z" fill="#444444" p-id="3187"></path></svg>