<svg t="1710330275790" class="icon" viewBox="0 0 1024 1024" version="1.1" xmlns="http://www.w3.org/2000/svg" p-id="1036" width="200" height="200"><path d="M459 276.1c-10.6 122.4-52.2 171.2-124.9 146.5-18.9-6.5-32 0.7-39.1 21.5 6 37 43.9 44.7 113.6 23.3 40.8-12.6 57.6-76.3 50.4-191.3z" fill="#ffd052" p-id="1037"></path><path d="M305.5 404.7c-5.7 0-10.2-4.6-10.2-10.2V269.1c0-5.7 4.6-10.2 10.2-10.2s10.2 4.6 10.2 10.2v125.4c0.1 5.6-4.5 10.2-10.2 10.2zM356.7 404.7c-5.7 0-10.2-4.6-10.2-10.2V269.1c0-5.7 4.6-10.2 10.2-10.2s10.2 4.6 10.2 10.2v125.4c0.1 5.6-4.5 10.2-10.2 10.2zM407.9 404.7c-5.7 0-10.2-4.6-10.2-10.2V269.1c0-5.7 4.6-10.2 10.2-10.2s10.2 4.6 10.2 10.2v125.4c0 5.6-4.5 10.2-10.2 10.2z" fill="#444444" p-id="1038"></path><path d="M348.2 553c-5.7 0-10.2 4.6-10.2 10.2v226.9c0 5.7 4.6 10.2 10.2 10.2h21.7c5.7 0 10.2-4.6 10.2-10.2V563.2c0-5.7-4.6-10.2-10.2-10.2h-21.7z" fill="#ffd052" p-id="1039"></path><path d="M447.1 215H265.7c-11.3 0-20.5 9.2-20.5 20.5v136.2c0 58.5 45.5 106.5 102.9 110.7v60.2c-11.3 0-20.5 9.2-20.5 20.5V790c0 11.3 9.2 20.5 20.5 20.5h21.7c11.3 0 20.5-9.2 20.5-20.5V563.2c0-11.3-9.2-20.5-20.5-20.5h-1.2v-60.5c55.5-6.1 98.9-53.3 98.9-110.4V235.5c0-11.3-9.1-20.5-20.4-20.5z m-77.2 575.1h-21.7V563.2h21.7v226.9z m77.2-418.3c0 50-40.7 90.7-90.7 90.7s-90.7-40.7-90.7-90.7V235.6H447v136.2z" fill="#444444" p-id="1040"></path><path d="M656.2 575.1c31.6 34.7 39.2 69.4 22.8 104.3-16.4 34.9-54.7 59.7-114.8 74.6 49 51 95.5 66.9 139.4 47.7 65.9-28.7 85.6-79 85.6-122.3s-36.9-94-73.6-104.3c-24.4-6.9-44.2-6.9-59.4 0z" fill="#ffd052" p-id="1041"></path><path d="M697.2 556.9c0.3-1.3 0.4-2.6 0.4-3.9V256c0-11.3-9.2-20.5-20.5-20.5h-21.7c-11.3 0-20.5 9.2-20.5 20.5v297c0 1.2 0.2 2.4 0.4 3.6-58.8 13.8-102.8 66.5-102.8 129.5 0 73.4 59.7 133.1 133.1 133.1s133.1-59.7 133.1-133.1c0-62.5-43.3-115-101.5-129.2z m-41.8-3.9V256h21.7v297h-21.7z m10.2 245.7c-62.1 0-112.6-50.5-112.6-112.6s50.5-112.6 112.6-112.6S778.2 624 778.2 686.1s-50.5 112.6-112.6 112.6z" fill="#444444" p-id="1042"></path><path d="M665.6 768c-45.2 0-81.9-36.8-81.9-81.9 0-45.2 36.8-81.9 81.9-81.9 45.2 0 81.9 36.8 81.9 81.9 0 45.1-36.7 81.9-81.9 81.9z m0-143.4c-33.9 0-61.4 27.6-61.4 61.4s27.6 61.4 61.4 61.4S727 720 727 686.1s-27.5-61.5-61.4-61.5z" fill="#444444" p-id="1043"></path></svg>