<svg t="1710331253054" class="icon" viewBox="0 0 1024 1024" version="1.1" xmlns="http://www.w3.org/2000/svg" p-id="2558" width="200" height="200"><path d="M721.9 404.5c-6.8 78.5-18.8 131.4-35.8 158.7-17.1 27.3-49.5 37.5-97.3 30.7 34.1 27.3 51.2 51.2 51.2 71.7v158.7h81.9V404.5z" fill="#ffd052" p-id="2559"></path><path d="M266.2 399.4v225.3h51.2v194.6c0 11.3 9.2 20.5 20.5 20.5h71.7c11.3 0 20.5-9.2 20.5-20.5V235.1l-10.9 0.7c-85.8 5.7-153 77.5-153 163.6z m143.4 419.8h-71.7V624.6h71.7v194.6z m-92.2-215h-30.7V399.4c0-71.6 53.1-131.9 122.9-141.9v346.7h-92.2zM701.4 235.5H537.6c-16.9 0-30.7 13.8-30.7 30.7v348.2h76.8c10.7 0 20.3 4.2 27.6 10.9 0.7 1 1.5 1.8 2.4 2.4 6.7 7.3 10.9 16.9 10.9 27.6v148.5c0 16.9 13.8 30.7 30.7 30.7h46.1c16.9 0 30.7-13.8 30.7-30.7V266.2c0.1-16.9-13.7-30.7-30.7-30.7z m-174 358.4V266.2c0-5.6 4.6-10.2 10.2-10.2h163.8c5.7 0 10.2 4.6 10.2 10.2v343h-87.5c-10.8-9.5-25-15.4-40.5-15.4h-56.2z m174 220.2h-46.1c-5.6 0-10.2-4.6-10.2-10.2V655.4c0-9.1-2.1-17.8-5.7-25.6h72.2v174.1c0.1 5.6-4.5 10.2-10.2 10.2z" fill="#444444" p-id="2560"></path><path d="M670.7 358.4c14.1 0 25.6-11.5 25.6-25.6 0-14.1-11.5-25.6-25.6-25.6-14.1 0-25.6 11.5-25.6 25.6 0 14.1 11.5 25.6 25.6 25.6z m0-30.7c2.8 0 5.1 2.3 5.1 5.1s-2.3 5.1-5.1 5.1-5.1-2.3-5.1-5.1 2.3-5.1 5.1-5.1z" fill="#444444" p-id="2561"></path></svg>