<svg t="1710331353666" class="icon" viewBox="0 0 1024 1024" version="1.1" xmlns="http://www.w3.org/2000/svg" p-id="3024" width="200" height="200"><path d="M775.4 411.3l-40.7 49.8c6.9 65.1 3.2 116.5-10.9 154.4-21.2 56.8-115.3 121.1-192.6 131.5-51.5 6.9-93.4 6.9-125.7 0 134.3 68 240.4 61.6 318.2-19.2 116.8-121.2 83.7-181 83.7-227.5 0.1-31.1-10.6-60.7-32-89z" fill="#ffd052" p-id="3025"></path><path d="M544.9 256c-26.2 0-56.7 4-80.8 13.8-31.9-6.1-64-8.2-95.5-6.1-34.2 2.3-64.1 15.6-89 39.6-4.1 3.9-4.2 10.4-0.3 14.5 2 2.1 4.7 3.1 7.4 3.1 2.6 0 5.1-1 7.1-2.9 21.6-20.8 46.5-31.9 76.2-33.9 22.1-1.5 44.5-0.7 66.9 2.1-5 4.7-9.1 9.9-11.7 15.9-1.8 4-3 8.7-3.5 13.9-34 6.6-62.2 15.1-83.9 25.3-23 10.8-42.7 28.7-58.6 53.2-3.1 4.7-1.7 11.1 3 14.2 1.7 1.1 3.7 1.6 5.6 1.6 3.4 0 6.6-1.6 8.6-4.7 13.8-21.2 30.6-36.6 50.1-45.8 19.5-9.2 45.1-16.9 76.1-23.2 5.9 36.7 34.7 85 89.4 116.1 27.3 15.6 52.2 26.8 74.1 36.7 33.5 15.1 59.9 27 72.9 45.3 7.5 10.4 8.8 27.8 3.5 46.4-9.9 35.4-39 66.3-77.8 82.9-46.5 19.8-90.9 29.2-132.2 27.9 0-35.6-2.7-60.9-8.2-77.1-4.4-12.8-12.7-30.4-25.4-53.8-5.4-9.9-17.8-13.6-27.7-8.2-5.7 3.1-9.6 8.7-10.5 15.2-0.1 0.6-0.2 1.1-0.2 1.7L356.1 537c-3.2-4.4-8-7.3-13.4-8.1-5.4-0.8-10.8 0.5-15.2 3.8-3.6 2.7-6.3 6.5-7.5 10.8-6.9 24.1-5.9 55.4 3 95.8 11.5 52.2 47.2 98.1 106 136.4 0.4 0.3 0.8 0.5 1.3 0.7 36.1 16.7 74.6 25.2 114.7 25.2 150.5 0 272.9-122.4 272.9-272.8-0.2-150.4-122.6-272.8-273-272.8z m137.3 330.8c5.2-18.4 5.2-35.9 0.3-50.1l93.1-109.8c13.9 31.2 21.6 65.7 21.6 102 0 34.3-6.9 67.1-19.4 96.9l-98.7-30.2c1.1-3 2.3-5.9 3.1-8.8z m-87.7-115.9c-21.5-9.7-45.9-20.7-72.4-35.8-66.1-37.6-88.2-102.1-78.2-124.6 9.9-22.3 58.3-33.9 101-33.9 94.9 0 177.8 52.7 220.8 130.4l-94.1 111c-16.8-19.7-43.6-32-77.1-47.1zM342.9 635c-8-36.5-9.2-65.4-3.3-85.8l37.4 50.7c-1.4 18.8-1.3 35 0.3 48.1 2.6 20.8 7.7 45.1 15.1 72.7-26.1-26.1-42.7-54.8-49.5-85.7z m77.9 110.1c-12-39.2-19.8-72.8-23.2-99.7-2.3-18.3-1.2-43.3 3.2-74.5 12 22.1 20.1 39.1 24 50.6 5.2 15.1 7.5 42.1 7.1 80-0.1 5.4 4.1 9.9 9.5 10.3 9.4 0.7 19 0.7 28.6 0.3v57.6c-10.4-3.2-20.6-7-30.5-11.6-6.5-4.1-12.8-8.5-18.7-13z m69.7 30.3v-64.6c30.2-3.3 61.5-11.5 93.7-24.5l45.9 80c-26.6 9.6-55.3 14.8-85.2 14.8-18.5 0.1-36.7-1.9-54.4-5.7z m158.7-16.8L603 677.9c29.4-14.9 53.1-37.2 67.7-63.5l98.4 30.1c-26 50.2-68.3 90.5-119.9 114.1z" fill="#444444" p-id="3026"></path><path d="M531.2 317.4c-10.6 0-19.2 8.7-19.2 19.5s8.6 19.5 19.2 19.5 19.2-8.7 19.2-19.5-8.5-19.5-19.2-19.5z" fill="#444444" p-id="3027"></path></svg>