<svg t="1710331513191" class="icon" viewBox="0 0 1024 1024" version="1.1" xmlns="http://www.w3.org/2000/svg" p-id="3496" width="200" height="200"><path d="M708 506.6c-54.9-16.6-116.8-6.5-164.7 32.3-49.4 40-71.9 100.8-65.3 159.5" fill="#ffd052" p-id="3497"></path><path d="M478 708.6c-5.1 0-9.6-3.9-10.2-9.1-7.3-64.7 18.5-127.7 69-168.6 48.8-39.5 113.9-52.3 174.1-34.1 5.4 1.6 8.5 7.4 6.8 12.8-1.6 5.4-7.3 8.5-12.8 6.8-53.7-16.2-111.8-4.8-155.3 30.4-45.1 36.5-68.1 92.7-61.6 150.4 0.6 5.6-3.4 10.7-9 11.3-0.2 0.1-0.6 0.1-1 0.1z" fill="#444444" p-id="3498"></path><path d="M800.3 311c-6-7.4-14.6-12.1-24.1-13.1-9.6-1-18.9 1.8-26.3 7.8l-51.7 41.9-19.3-23.9c-5.2-6.4-12.5-10.4-20.7-11.2-8.1-0.9-16.2 1.5-22.5 6.7l-25.1 20.3c-0.3-1.8-0.8-3.5-2-5-65.7-81.2-185.3-93.7-266.4-28-81.2 65.7-93.7 185.3-28 266.4 1.2 1.5 2.8 2.4 4.4 3l-25.1 20.3c-6.4 5.2-10.4 12.5-11.2 20.7-0.9 8.2 1.5 16.2 6.7 22.5l19.3 23.9-43.8 35.4c-15.4 12.4-17.7 35.1-5.3 50.4 6 7.4 14.6 12.1 24.1 13.1 1.3 0.1 2.5 0.2 3.8 0.2 8.2 0 16.1-2.8 22.5-8l43.8-35.4 25.8 31.8c5.2 6.4 12.5 10.4 20.7 11.2 1.1 0.1 2.2 0.2 3.3 0.2 7 0 13.8-2.4 19.3-6.8l342.2-277.1c6.4-5.2 10.4-12.5 11.2-20.7 0.9-8.2-1.5-16.2-6.7-22.5l-25.8-31.8 51.7-41.9c15.2-12.4 17.6-35 5.2-50.4zM296.7 738.6c-3.2 2.6-7.2 3.8-11.3 3.3-4.1-0.4-7.7-2.4-10.3-5.6-2.6-3.2-3.8-7.2-3.3-11.3 0.4-4.1 2.4-7.8 5.6-10.3l35.8-29 19.3 23.9-35.8 29zM330 560.1c-58.6-72.4-47.4-179 25-237.6 72.4-58.6 179-47.4 237.6 25 1.2 1.5 2.8 2.4 4.4 3L332 565c-0.3-1.7-0.8-3.4-2-4.9z m425.3-104.6c-0.3 2.7-1.6 5.2-3.7 6.9L409.4 739.5c-2.1 1.7-4.8 2.5-7.5 2.2-2.7-0.3-5.2-1.6-6.9-3.7l-90.2-111.4c-1.7-2.1-2.5-4.8-2.2-7.5 0.3-2.7 1.6-5.2 3.7-6.9l342.2-277.1c2.1-1.7 4.7-2.5 7.5-2.2 2.7 0.3 5.2 1.6 6.9 3.7L753.1 448c1.7 2.1 2.5 4.8 2.2 7.5z m26.8-110l-39.8 32.2-19.3-23.9 39.8-32.2c3.2-2.6 7.1-3.8 11.3-3.3 4.1 0.4 7.8 2.4 10.3 5.6 5.3 6.6 4.3 16.3-2.3 21.6z" fill="#444444" p-id="3499"></path></svg>