<svg t="1710331478375" class="icon" viewBox="0 0 1024 1024" version="1.1" xmlns="http://www.w3.org/2000/svg" p-id="3340" width="200" height="200"><path d="M790.4 458.9H576C691.5 505.8 727.6 570.4 684.4 653c-39.1 74.6-106.5 112.3-202.2 112.9 0 19.7 15.9 35.6 35.6 35.6h106.8c19.9 0 36.3-15.7 37.2-35.6 57.9-38.3 99.7-83.5 125.4-135.7 18.6-37.7 32.9-78.1 43-121 5.2-22-8.5-44.1-30.5-49.2-3-0.8-6.2-1.1-9.3-1.1z" fill="#ffd052" p-id="3341"></path><path d="M785.1 440.3h-185V331c0.6 0.1 1.1 0.4 1.7 0.4h203.6c5.7 0 10.2-4.6 10.2-10.2 0-5.7-4.6-10.2-10.2-10.2H601.8c-0.6 0-1.2 0.2-1.7 0.4V256l194.2-8.9c5.6-0.3 10-5 9.8-10.7-0.3-5.6-5.1-9.9-10.7-9.8L391.5 245c-5.6 0.3-10 5-9.8 10.7 0.2 5.5 4.8 9.8 10.2 9.8h0.5l7.5-0.3v175.2H235.5c-1.2 0-2.5 0.1-3.7 0.2-16.8 2-28.8 17.4-26.8 34.2 5.6 45.5 23.9 94.5 54.4 145.5 34.9 58.4 83.2 103.5 143.6 134v7.9c0 16.9 13.8 30.7 30.7 30.7h177.5c16.9 0 30.7-13.8 30.7-30.7v-8.6c64.8-42.1 109.6-90.5 133.2-144 20.1-45.5 33.6-90.5 40.2-133.8 0.2-1.5 0.4-3.1 0.4-4.7 0.1-17-13.7-30.8-30.6-30.8z m-205.5 0h-39.4V258.7l39.4-1.8v183.4z m-99.3 0V261.4l39.4-1.8v180.7h-39.4z m-59.9-176.1l39.4-1.8v177.9h-39.4V264.2z m190.9 508.2H433.8c-5.6 0-10.2-4.6-10.2-10.2v-9.6h198v9.6c-0.1 5.6-4.7 10.2-10.3 10.2z m183.9-299.8c-6.3 41.6-19.4 84.9-38.7 128.7-21.2 48.1-61.6 92-119.6 130.9H405.3c-53.6-28.7-96.8-69.7-128.3-122.4-29-48.6-46.4-94.8-51.6-137.5-0.7-5.6 3.3-10.7 8.9-11.4 0.4 0 0.8-0.1 1.3-0.1h549.6c5.7 0 10.2 4.6 10.2 10.2-0.1 0.5-0.1 1-0.2 1.6z" fill="#444444" p-id="3342"></path><path d="M741.4 553.8c-5.2-2.3-11.2 0-13.5 5.2-10.2 22.9-22 43.6-35 61.5-13 17.8-27.8 33.8-44.1 47.4-4.3 3.6-4.9 10.1-1.3 14.4 2 2.4 4.9 3.7 7.9 3.7 2.3 0 4.6-0.8 6.5-2.4 17.6-14.7 33.6-31.9 47.6-51.1 13.9-19.1 26.4-41 37.2-65.3 2.2-5-0.1-11.1-5.3-13.4z" fill="#444444" p-id="3343"></path></svg>