<svg t="1710331313361" class="icon" viewBox="0 0 1024 1024" version="1.1" xmlns="http://www.w3.org/2000/svg" p-id="2869" width="200" height="200"><path d="M271.4 619.5L256 696.3c71.7 75.9 157 113.4 256 112.6 99-0.8 187.7-38.3 266.2-112.6l-15.4-76.8c-27.3 27.3-47.8 41-61.4 41-20.5 0-30.7-35.8-51.2-25.6s-20.5 25.6-20.5 46.1-12.3 38.4-62.5 46.1c-50.2 7.7-178.2 0-245.8-46.1-44.9-30.8-61.6-51.2-50-61.5z" fill="#ffd052" p-id="2870"></path><path d="M785.3 675.3L725.7 422c-0.4-1.7-1.3-3.3-2.5-4.6-27.1-29-74.2-42.2-105.4-48.1 0.4-3.6 0.6-7.3 0.6-11 0-51.1-37.6-93.4-86.6-101 8.8-17.5 20.9-27.4 36.8-29.6 27.6-3.9 40.5-2.4 46.5-0.4 5.4 1.8 11.2-1.1 12.9-6.5 1.8-5.4-1.1-11.2-6.5-13-11.9-4-30.2-4.1-55.9-0.4-25.3 3.6-44 20.1-55.9 48.8-53.6 3.2-96.2 47.7-96.2 102.1 0 3.4 0.2 6.7 0.5 10-38.4 6.5-69.3 21.5-99.5 48.4-1.5 1.4-2.6 3.1-3.1 5.1l-64 252.8c-6 23.7 2.9 48.3 23.3 64 68 52.6 150.5 79.3 245.2 79.3 94.9 0 177.6-26.8 245.7-79.7 20.2-15.4 29.2-39.5 23.7-62.9zM505.9 277.2v78.6c0 5.7 4.6 10.2 10.2 10.2 5.7 0 10.2-4.6 10.2-10.2v-78.6c40.4 5.1 71.7 39.5 71.7 81.2 0 45.2-36.8 81.9-81.9 81.9-45.2 0-81.9-36.8-81.9-81.9 0-41.7 31.3-76.1 71.7-81.2z m10.2 183.6c45.7 0 84.4-30.1 97.6-71.4 24.9 4.7 68.5 15.9 92.8 40.1l34.3 145.7-36.3 19.2c-3.4 1.8-7.2 2.8-11.1 2.8-13 0-23.7-10.6-23.7-23.7v-28.2c0-21.2-17.2-38.4-38.4-38.4s-38.4 17.2-38.4 38.4v66.6c0 24-19.5 43.5-43.5 43.5s-43.5-19.5-43.5-43.5v-30.7c0-43.7-35.6-80.1-79.3-81.1-8.8-0.2-17.5-1.2-26-3.1-26.6-5.9-49.6-28.9-68.3-68.2 26-22.2 52.9-34.7 85.9-40.2 12.9 41.7 51.9 72.2 97.9 72.2z m233.2 261.3c-64.5 50-142.9 75.4-233.2 75.4-90 0-168.3-25.2-232.7-75-13.9-10.7-20-27.1-16-42.8L324 456.5c19.9 33.7 44 54.1 72.2 60.3 9.8 2.2 19.9 3.4 30 3.6 32.7 0.7 59.3 27.9 59.3 60.6v30.7c0 35.3 28.7 64 64 64s64-28.7 64-64v-66.6c0-9.9 8-17.9 17.9-17.9s17.9 8 17.9 17.9v28.2c0 24.3 19.8 44.2 44.1 44.2 7.2 0 14.3-1.8 20.7-5.1l31.5-16.7 19.8 84.3c3.6 15.5-2.6 31.6-16.1 42.1z" fill="#444444" p-id="2871"></path></svg>