<svg t="1710331286739" class="icon" viewBox="0 0 1024 1024" version="1.1" xmlns="http://www.w3.org/2000/svg" p-id="2714" width="200" height="200"><path d="M694 640.7H323.6v123.2H694V640.7z" fill="#ffd052" p-id="2715"></path><path d="M819.2 447.9c0-75.3-61.9-136.6-138-136.6-13.6 0-26.9 2-39.7 5.9-21.8-49.3-71.3-81.7-126.3-81.7-56 0-105.7 33.1-127.1 83.5-14.5-5-29.7-7.7-45.3-7.7-76.1 0-138 61.3-138 136.6 0 65 45.2 119.8 108.6 133.4v162.1c0 16.9 13.8 30.7 30.7 30.7h329.4c16.9 0 30.7-13.8 30.7-30.7V582.5c66.2-10.9 115-67.1 115-134.6zM673.5 753.6H344.1c-5.6 0-10.2-4.6-10.2-10.2v-92.5h349.9v92.5c0 5.6-4.6 10.2-10.3 10.2z m19.4-190.1l0.1 0.8c-5.1 0.6-9.2 4.7-9.2 10v56.1H496.7V525.6c0-5.7-4.6-10.2-10.2-10.2s-10.2 4.6-10.2 10.2v104.8h-56.2v-57.7c0-5.7-4.6-10.2-10.2-10.2s-10.2 4.6-10.2 10.2v57.7H334v-56.1c0-2.8-1.1-5.2-2.9-7.1-1.5-2.4-3.9-4.1-6.9-4.6-57.2-9.1-98.7-57.3-98.7-114.7 0-64 52.7-116.1 117.5-116.1 15.4 0 30.3 3 44.4 8.7 1 0.8 2.1 1.5 3.4 1.9 1.1 0.4 2.2 0.5 3.2 0.5 4.3 0 8.3-2.7 9.7-7 15.8-47.8 60.7-80 111.7-80 49.9 0 94.5 31.3 110.9 77.8 1.9 5.3 7.7 8.2 13.1 6.2 0.9-0.3 1.7-0.9 2.4-1.5 12.7-4.5 26-6.8 39.6-6.8 64.8 0 117.5 52.1 117.5 116.1-0.2 60.3-45.7 110-106 115.8z" fill="#444444" p-id="2716"></path></svg>