<svg t="1710330585648" class="icon" viewBox="0 0 1024 1024" version="1.1" xmlns="http://www.w3.org/2000/svg" p-id="1196" width="200" height="200"><path d="M809 434.3c0-64.9-82.3-121.7-204.8-141.3-0.7-0.1-1.4 0-2.1 0.1-28-25.2-56.5-38-84.9-38-27.6 0-54.4 11.9-80.2 35.4-124.1 15.9-212.4 69.9-221 133.5h-1v184.3c0 93.2 133.2 169 297 169 160.7 0 291.9-73 296.7-163.8h0.2v-177h-0.1c0.1-0.7 0.2-1.4 0.2-2.2zM486.2 282.4l-19.6 51c-2 5.3 0.6 11.2 5.9 13.2 1.2 0.5 2.5 0.7 3.7 0.7 4.1 0 8-2.5 9.6-6.6l24.8-64.4c1-0.1 2-0.1 3.1-0.1l30.1 65.2c1.7 3.7 5.4 6 9.3 6 1.4 0 2.9-0.3 4.3-0.9 5.1-2.4 7.4-8.5 5-13.6l-25-54.1c28.4 7.4 57.3 30.4 86.5 68.9-36.5 2.3-71.6 25.5-104.7 69.1-34.2-41.9-69.2-65-104.3-68.7 23.2-33.9 47.1-55.7 71.3-65.7z m198.9 142.5l-23-49.8c24.4 10.1 49.1 31.4 74 64.3 4 5.3 6.2 11.9 6.2 18.5v46c-50 34.8-135.5 58.4-230.4 58.4-85.8 0-163.9-19.2-215-48.7V457c0-6.3 1.9-12.4 5.5-17.5 23.2-33.4 46.9-54.7 71-64.7L354 425.5c-2 5.3 0.6 11.2 5.9 13.2 1.2 0.5 2.5 0.7 3.7 0.7 4.1 0 8-2.5 9.6-6.6l24.7-64.2c1.1-0.1 2.1-0.2 3.2-0.3l19.8 44.5c1.7 3.8 5.4 6.1 9.4 6.1 1.4 0 2.8-0.3 4.2-0.9 5.2-2.3 7.5-8.3 5.2-13.5L424.5 371c27.2 7 54.7 28.2 82.5 63.6-3.4 7-5.2 14.6-5.2 22.5V501h35.9v-43c0-8.3-2.1-16.5-5.9-23.8 27.3-37.5 55.2-59.1 83.6-64.5l-20.5 45.1c-2.3 5.1-0.1 11.2 5.1 13.6 1.4 0.6 2.8 0.9 4.2 0.9 3.9 0 7.6-2.2 9.3-6l24-52.7 29.1 63c1.7 3.7 5.4 6 9.3 6 1.4 0 2.9-0.3 4.3-0.9 5.1-2.6 7.3-8.6 4.9-13.8zM414 314.9c-7.9 9.5-15.6 20.2-23.3 32l-1 1.6c-36.4 5.7-71.3 32.2-104.1 79.3-6 8.6-9.2 18.8-9.2 29.2v43.3c-25.9-19.4-41-42.1-41-66 0.1-52.3 73.8-100.6 178.6-119.4z m374.5 293.5c0 81.9-124 148.5-276.5 148.5s-276.5-66.6-276.5-148.5v-119c42.9 55.2 149.1 93.4 276.5 93.4 105.5 0 196.5-26.2 249-66.6h1.9v-1.5c10.1-7.9 18.7-16.4 25.6-25.3v119z m-25.6-121.3v-29.2c0-11.1-3.7-22.1-10.4-30.9-33.4-44.2-67.7-70.1-102.3-77.5v-0.4l-1.9-2.7c-7.3-10.4-14.7-19.8-22.1-28.4 96.7 20.8 162.2 66.9 162.2 116.3 0.1 18.7-9.2 36.6-25.5 52.8z" fill="#444444" p-id="1197"></path><path d="M394.2 557.2v-49c0-8.4 2.6-16.5 7.3-23.4 35.3-50.7 72.1-76.1 110.4-76.1 38.2 0 76.4 25.2 114.6 75.7 5.4 7.1 8.3 15.8 8.3 24.7v48.1c-42.7 10.2-83.6 15.4-122.9 15.4s-78.4-5.1-117.7-15.4z" fill="#ffd052" p-id="1198"></path><path d="M512 582.8c-39.9 0-80.4-5.3-120.3-15.7-4.5-1.2-7.7-5.2-7.7-9.9v-49c0-10.5 3.2-20.6 9.2-29.2 37.2-53.4 77.1-80.5 118.8-80.5 41.4 0 82.7 26.8 122.7 79.7 6.7 8.8 10.4 19.8 10.4 30.9v48.1c0 4.7-3.2 8.9-7.8 10-43.3 10.3-85.4 15.6-125.3 15.6z m-107.5-33.6c35.7 8.7 71.9 13.1 107.5 13.1 35.9 0 73.7-4.5 112.6-13.3v-39.9c0-6.6-2.2-13.2-6.2-18.5-71.9-94.9-142.1-95.2-208.4 0.1-3.6 5.2-5.5 11.2-5.5 17.5v41z" fill="#444444" p-id="1199"></path><path d="M471 490.6c-1.2 0-2.5-0.2-3.7-0.7-5.3-2-7.9-8-5.9-13.2l25.6-66.6c2-5.3 8-7.9 13.2-5.9 5.3 2 7.9 8 5.9 13.2L480.5 484c-1.5 4.2-5.4 6.6-9.5 6.6z" fill="#444444" p-id="1200"></path><path d="M547.9 490.6c-3.9 0-7.6-2.2-9.3-5.9l-30.7-66.6c-2.4-5.1-0.1-11.2 5-13.6 5.1-2.4 11.2-0.1 13.6 5l30.7 66.6c2.4 5.1 0.1 11.2-5 13.6-1.5 0.7-2.9 0.9-4.3 0.9z" fill="#444444" p-id="1201"></path></svg>