<svg t="1710331565921" class="icon" viewBox="0 0 1024 1024" version="1.1" xmlns="http://www.w3.org/2000/svg" p-id="3652" width="200" height="200"><path d="M782.6 481.3c-16.6 85.3-69.2 145.1-158 179.2-88.7 34.1-155.3 44.4-199.7 30.7v46.1h220.2v-41c51.2-10.2 85.3-30.7 102.4-61.4 17.1-30.7 28.8-81.9 35.1-153.6zM542.7 425c-2.6 0-5.1-1-7.1-2.9-4.1-3.9-4.2-10.4-0.2-14.5l163.8-169c3.9-4.1 10.4-4.2 14.5-0.2 4.1 3.9 4.2 10.4 0.2 14.5l-163.8 169c-2 2-4.7 3.1-7.4 3.1zM589.6 448.7c-3.2 0-6.4-1.5-8.4-4.4-3.2-4.6-2.1-11 2.5-14.3l193.1-134.6c4.7-3.2 11-2.1 14.3 2.5 3.2 4.6 2.1 11-2.5 14.3L595.4 446.9c-1.8 1.2-3.8 1.8-5.8 1.8z" fill="#ffd052" p-id="3653"></path><path d="M799.5 487.3c-0.1-1-0.2-1.9-0.3-2.7-1.5-8.1-7.8-14.2-15.4-16-16.5-15-30.7-25.7-43-32.2C725.9 388.6 687.1 347 637 322l76.9-79.3c3.9-4.1 3.8-10.5-0.2-14.5-4-3.9-10.5-3.8-14.5 0.2L617 313.1c-26.3-10.3-55-16.2-84.6-16.2-96.8 0-183.5 59.7-208.1 135.8-17.7 7.8-39.3 21.3-64.4 40.3-3.6 2.7-4.8 7.3-3.4 11.4-0.3 1.5-0.5 3.1-0.4 4.7 1.9 52.1 16.3 97.1 42.7 133.7 27.3 37.8 66.2 65 115.8 80.9v33.4c0 5.7 4.6 10.2 10.2 10.2H645c5.7 0 10.2-4.6 10.2-10.2v-34c48.6-20.1 85.9-49.8 111-88.4 24.4-37 35.5-79.9 33.3-127.4z m-43.3-15.6c-3 0.5-5.9 1.1-8.9 1.6-0.1-3-0.5-6-0.8-9 3.1 2.2 6.3 4.7 9.7 7.4zM532.5 317.4c24.9 0 48 4.3 69.3 11.5l-66.4 68.5c-3.9 4.1-3.8 10.5 0.2 14.5 2 1.9 4.6 2.9 7.1 2.9 2.7 0 5.3-1 7.4-3.1l72.3-74.6c63.1 29.2 103.5 86.3 104.7 139.3v0.1c-64.8 9.9-130 15-194.6 15-62.7 0-128.1-4.8-194.8-14.1 0.1-0.4 0.2-0.8 0.2-1.2 0-90.9 102.7-158.8 194.6-158.8z m-215 157c-6.5-1-13-2.1-19.6-3.2 7.4-4.9 14.2-9.1 20.7-12.7-0.7 5.3-1 10.6-1.1 15.9z m431.7 129.3c-23.8 36.6-60.1 64.5-107.8 83.1-3.9 1.5-6.5 5.3-6.5 9.5V727H435.2v-30.7c0-4.5-3-8.6-7.4-9.8-48.6-14.2-86.4-39.6-112.3-75.5-24-33.2-37-74.5-38.8-122.5 87.9 15.6 174 23.5 255.8 23.5 80.9 0 162.8-7.8 243.5-23 1 0.8 2 1.5 3.1 1.9 1.5 41.9-8.5 79.9-29.9 112.8z" fill="#444444" p-id="3654"></path><path d="M589.6 438.5c-3.2 0-6.4-1.5-8.4-4.4-3.2-4.6-2.1-11 2.5-14.3l193.1-134.6c4.7-3.2 11-2.1 14.3 2.5 3.2 4.6 2.1 11-2.5 14.3L595.4 436.7c-1.8 1.2-3.8 1.8-5.8 1.8z" fill="#444444" p-id="3655"></path></svg>